<?xml version="1.0" encoding="utf-8"?>
<!-- Generator: Adobe Illustrator 16.0.0, SVG Export Plug-In . SVG Version: 6.00 Build 0)  -->
<!DOCTYPE svg PUBLIC "-//W3C//DTD SVG 1.1//EN" "http://www.w3.org/Graphics/SVG/1.1/DTD/svg11.dtd">
<svg version="1.1" id="Layer_1" xmlns="http://www.w3.org/2000/svg" xmlns:xlink="http://www.w3.org/1999/xlink" x="0px" y="0px"
	 width="24.691px" height="18.431px" viewBox="670.379 40.535 24.691 18.431" enable-background="new 670.379 40.535 24.691 18.431"
	 xml:space="preserve">
<g>
	<path fill="#016836" d="M682.749,47.778c-0.504,0-1.01,0.192-1.395,0.578c-0.77,0.77-0.77,2.019,0,2.789
		c0.385,0.385,0.891,0.577,1.395,0.577c0.506,0,1.01-0.192,1.395-0.577c0.771-0.771,0.77-2.02,0-2.789
		C683.759,47.971,683.255,47.778,682.749,47.778L682.749,47.778z"/>
	<g>
		<path fill="#016836" d="M690.028,58.966c-0.275,0-0.549-0.113-0.748-0.335c-0.367-0.412-0.33-1.044,0.082-1.412
			c2.246-2.001,3.484-4.652,3.484-7.467s-1.238-5.468-3.486-7.47c-0.412-0.368-0.449-1-0.082-1.412
			c0.369-0.412,1.002-0.446,1.412-0.082c2.68,2.388,4.156,5.571,4.156,8.964s-1.477,6.574-4.154,8.961
			C690.503,58.882,690.265,58.966,690.028,58.966L690.028,58.966z"/>
	</g>
	<g>
		<path fill="#016836" d="M686.231,55.708c-0.275,0-0.549-0.113-0.746-0.335c-0.369-0.412-0.332-1.044,0.08-1.411
			c1.27-1.133,1.969-2.627,1.969-4.21s-0.699-3.079-1.969-4.212c-0.414-0.367-0.449-0.999-0.082-1.411
			c0.369-0.413,1.002-0.447,1.412-0.081c1.701,1.517,2.639,3.543,2.639,5.704s-0.936,4.186-2.639,5.702
			C686.706,55.624,686.468,55.708,686.231,55.708L686.231,55.708z"/>
	</g>
	<g>
		<path fill="#016836" d="M675.419,58.966c-0.236,0-0.473-0.084-0.664-0.254c-2.678-2.386-4.152-5.567-4.152-8.96
			s1.477-6.576,4.154-8.963c0.412-0.367,1.043-0.332,1.412,0.081c0.367,0.412,0.332,1.044-0.082,1.411
			c-2.246,2.003-3.484,4.656-3.484,7.471s1.238,5.466,3.482,7.468c0.414,0.367,0.449,0.999,0.082,1.411
			C675.97,58.853,675.694,58.966,675.419,58.966L675.419,58.966z"/>
	</g>
	<g>
		<path fill="#016836" d="M679.218,55.708c-0.236,0-0.475-0.084-0.664-0.254c-1.703-1.517-2.639-3.542-2.639-5.702
			c0-2.161,0.938-4.188,2.641-5.705c0.41-0.365,1.041-0.331,1.412,0.082c0.367,0.412,0.33,1.044-0.082,1.412
			c-1.271,1.132-1.971,2.628-1.971,4.211s0.699,3.077,1.969,4.21c0.412,0.367,0.449,0.999,0.08,1.411
			C679.767,55.595,679.493,55.708,679.218,55.708L679.218,55.708z"/>
	</g>
</g>
</svg>
