<?xml version="1.0" encoding="utf-8"?>
<!-- Generator: Adobe Illustrator 16.0.0, SVG Export Plug-In . SVG Version: 6.00 Build 0)  -->
<!DOCTYPE svg PUBLIC "-//W3C//DTD SVG 1.1//EN" "http://www.w3.org/Graphics/SVG/1.1/DTD/svg11.dtd">
<svg version="1.1" id="Layer_1" xmlns="http://www.w3.org/2000/svg" xmlns:xlink="http://www.w3.org/1999/xlink" x="0px" y="0px"
	 width="39.984px" height="39.988px" viewBox="0 0 39.984 39.988" enable-background="new 0 0 39.984 39.988" xml:space="preserve">
<g>
	<path fill="#B6ADA4" d="M39.537,19.968c0-10.778-8.768-19.544-19.546-19.544C9.215,0.424,0.447,9.19,0.447,19.968
		c0,6.645,3.338,12.518,8.419,16.05l5.602-3.052c1.026-0.562,1.662-1.637,1.662-2.805v-2.721l-0.175-0.211
		c-0.018-0.021-1.648-2.004-2.267-4.695l-0.065-0.298l-0.258-0.165c-0.367-0.237-0.583-0.629-0.583-1.053v-2.676
		c0-0.35,0.15-0.679,0.421-0.926l0.25-0.225V12.99l-0.007-0.101c0-0.018-0.225-1.836,1.054-3.293
		c1.093-1.245,2.963-1.875,5.559-1.875c2.587,0,4.453,0.625,5.544,1.86c1.279,1.443,1.07,3.292,1.07,3.308l-0.008,4.306l0.25,0.224
		c0.27,0.244,0.42,0.573,0.42,0.923v2.676c0,0.539-0.369,1.03-0.891,1.192l-0.377,0.113L25.945,22.7
		c-0.443,1.384-1.078,2.661-1.881,3.798c-0.201,0.279-0.393,0.525-0.557,0.717l-0.184,0.211v2.793c0,1.217,0.672,2.312,1.76,2.857
		l5.979,2.982C36.176,32.53,39.537,26.637,39.537,19.968z"/>
	<path fill="#FFFFFF" d="M23.324,30.219v-2.793l0.184-0.211c0.166-0.191,0.355-0.438,0.557-0.717
		c0.805-1.137,1.438-2.414,1.883-3.798l0.123-0.376l0.375-0.113c0.523-0.162,0.891-0.652,0.891-1.192v-2.676
		c0-0.35-0.148-0.679-0.418-0.923l-0.25-0.224l0.006-4.306c0-0.015,0.211-1.865-1.068-3.308c-1.092-1.236-2.957-1.86-5.545-1.86
		c-2.596,0-4.466,0.63-5.559,1.875c-1.28,1.458-1.054,3.276-1.054,3.293l0.007,0.101v4.203l-0.25,0.225
		c-0.27,0.247-0.421,0.576-0.421,0.926v2.676c0,0.425,0.216,0.815,0.583,1.053l0.258,0.165l0.065,0.298
		c0.62,2.691,2.25,4.674,2.267,4.695l0.175,0.211v2.721c0,1.169-0.636,2.243-1.662,2.805l-5.603,3.05l0,0
		c11.483,7.956,22.196,0.041,22.196,0.041l0,0l-5.979-2.982C23.996,32.531,23.324,31.436,23.324,30.219z"/>
</g>
</svg>
