<svg xmlns="http://www.w3.org/2000/svg" width="19.243" height="19.246" viewBox="0 0 19.243 19.246"><defs><style>.a{fill:#7b6d65;}</style></defs><g transform="translate(-644.824 -539.646)"><g transform="translate(644.825 539.646)"><g transform="translate(0)"><path class="a" d="M645.867,558.915a.521.521,0,0,1-.368-.153.509.509,0,0,1-.15-.4l.269-4.574a.522.522,0,0,1,.151-.337l13.63-13.632a.524.524,0,0,1,.368-.152h0a.52.52,0,0,1,.367.152l4.3,4.3a.521.521,0,0,1,0,.735l-13.633,13.637a.517.517,0,0,1-.338.153l-4.572.268Zm.778-4.867-.224,3.795,3.789-.224,13.125-13.129-3.568-3.566-13.123,13.124Z" transform="translate(-645.348 -539.669)"/></g><g transform="translate(11.907 2.429)"><path class="a" d="M661.188,546.914a.521.521,0,0,1-.368-.153l-3.869-3.869a.52.52,0,0,1,.735-.735l3.87,3.868a.52.52,0,0,1-.367.888Z" transform="translate(-656.798 -542.005)"/></g><g transform="translate(0.207 15.814)"><path class="a" d="M648.16,558.147a.512.512,0,0,1-.125-.013.522.522,0,0,1-.382-.63c.017-.065.032-.132.043-.2a1.228,1.228,0,0,0-1.4-1.385c-.01,0-.126.03-.138.032a.52.52,0,0,1-.175-1.025,1.548,1.548,0,0,1,.209-.041,2.265,2.265,0,0,1,2.543,2.53,2.576,2.576,0,0,1-.067.336.518.518,0,0,1-.5.4Z" transform="translate(-645.547 -554.875)"/></g></g></g></svg>