<svg xmlns="http://www.w3.org/2000/svg" width="18.362" height="19.394" viewBox="0 0 18.362 19.394"><defs><style>.a{fill:#e53c2e;}</style></defs><g transform="translate(-1221.404 -216.738)"><g transform="translate(1221.404 216.738)"><g transform="translate(0 2.278)"><path class="a" d="M369,461.175H351.487a.422.422,0,0,1,0-.844H369a.422.422,0,1,1,0,.844Z" transform="translate(-351.065 -460.331)"/></g><g transform="translate(5.764)"><path class="a" d="M363.9,460.593a2.645,2.645,0,0,0-5.183,0l-.827-.168a3.488,3.488,0,0,1,6.835,0l-.826.17Z" transform="translate(-357.893 -457.632)"/></g><g transform="translate(1.358 3.072)"><path class="a" d="M366.19,477.593H354.8a1.3,1.3,0,0,1-1.255-1.241q-.441-7.314-.875-14.633a.422.422,0,0,1,.4-.447.41.41,0,0,1,.446.4q.434,7.317.875,14.632a.458.458,0,0,0,.413.447H366.19a.459.459,0,0,0,.414-.448q.436-7.313.875-14.632a.429.429,0,0,1,.447-.4.422.422,0,0,1,.4.447q-.441,7.315-.875,14.632a1.308,1.308,0,0,1-1.256,1.241Z" transform="translate(-352.674 -461.271)"/></g><g transform="translate(4.994 5.389)"><g transform="translate(0 0)"><path class="a" d="M357.966,474.922a.423.423,0,0,1-.421-.4l-.563-10.06a.422.422,0,0,1,.4-.445.416.416,0,0,1,.445.4l.564,10.059a.423.423,0,0,1-.4.446Z" transform="translate(-356.981 -464.016)"/></g><g transform="translate(6.965)"><path class="a" d="M365.654,474.922h-.023a.423.423,0,0,1-.4-.446l.561-10.06a.407.407,0,0,1,.446-.4.421.421,0,0,1,.4.445l-.561,10.059a.422.422,0,0,1-.421.4Z" transform="translate(-365.232 -464.016)"/></g></g><g transform="translate(8.759 5.392)"><path class="a" d="M361.863,474.923a.422.422,0,0,1-.422-.422v-10.06a.422.422,0,0,1,.844,0V474.5a.422.422,0,0,1-.422.422Z" transform="translate(-361.441 -464.019)"/></g></g></g></svg>