<?xml version="1.0" encoding="utf-8"?>
<!-- Generator: Adobe Illustrator 16.0.0, SVG Export Plug-In . SVG Version: 6.00 Build 0)  -->
<!DOCTYPE svg PUBLIC "-//W3C//DTD SVG 1.1//EN" "http://www.w3.org/Graphics/SVG/1.1/DTD/svg11.dtd">
<svg version="1.1" id="Layer_1" xmlns="http://www.w3.org/2000/svg" xmlns:xlink="http://www.w3.org/1999/xlink" x="0px" y="0px"
	 width="12px" height="20.568px" viewBox="799.5 41.438 12 20.568" enable-background="new 799.5 41.438 12 20.568"
	 xml:space="preserve">
<g>
	<g>
		<path fill="#7B6D64" d="M810.749,62.007h-10.498c-0.414,0-0.751-0.382-0.751-0.857V42.296c0-0.476,0.337-0.857,0.751-0.857h10.498
			c0.414,0,0.751,0.382,0.751,0.857v18.854C811.5,61.625,811.163,62.007,810.749,62.007L810.749,62.007z M801.001,59.437h8.998
			V44.009h-8.998V59.437L801.001,59.437z"/>
	</g>
	<path fill="#FFFFFF" d="M807.093,60.524c0,0.272-0.221,0.493-0.492,0.493h-2.201c-0.271,0-0.492-0.221-0.492-0.493l0,0
		c0-0.271,0.221-0.493,0.492-0.493h2.201C806.872,60.031,807.093,60.253,807.093,60.524L807.093,60.524z"/>
</g>
</svg>
