<svg xmlns="http://www.w3.org/2000/svg" width="11.667" height="20" viewBox="0 0 11.667 20"><defs><style>.a{fill:#7b6d65;}.b{fill:#fff;}</style></defs><g transform="translate(-661.35 -794.032)"><path class="a" d="M672.287,814.032H662.08a.786.786,0,0,1-.73-.834V794.866a.786.786,0,0,1,.73-.834h10.207a.786.786,0,0,1,.73.834V813.2a.786.786,0,0,1-.73.834Zm-9.478-2.5h8.75v-15h-8.75v15Z"/><path class="b" d="M668.732,812.591a.479.479,0,0,1-.478.479h-2.141a.479.479,0,0,1-.478-.479h0a.48.48,0,0,1,.478-.48h2.141a.48.48,0,0,1,.478.48Z"/></g></svg>