<svg version="1.1" id="Layer_1" xmlns="http://www.w3.org/2000/svg" xmlns:xlink="http://www.w3.org/1999/xlink" x="0px" y="0px" width="16px" height="14px" viewBox="0 0 16 14" enable-background="new 0 0 16 14" xml:space="preserve"><g>	<g>		<g>			<path fill="#E53B2E" d="M8.982,0c-3.673,0-6.69,2.831-6.988,6.419L1.098,5.617c-0.271-0.242-0.685-0.22-0.929,0.05            c-0.243,0.27-0.22,0.685,0.051,0.927l1.999,1.789C2.343,8.494,2.5,8.551,2.657,8.551c0.158,0,0.314-0.057,0.439-0.168l2-1.789            c0.271-0.242,0.293-0.657,0.05-0.927c-0.244-0.271-0.659-0.294-0.929-0.05L3.31,6.428C3.599,3.56,6.032,1.313,8.982,1.313            c3.145,0,5.702,2.551,5.702,5.686c0,3.136-2.557,5.688-5.702,5.688c-1.464,0-2.855-0.553-3.92-1.561            c-0.225-0.211-0.434-0.441-0.621-0.688c-0.22-0.289-0.632-0.346-0.923-0.125c-0.289,0.219-0.345,0.631-0.125,0.92            c0.23,0.303,0.488,0.588,0.766,0.848C5.466,13.318,7.179,14,8.982,14C12.853,14,16,10.859,16,6.999C16,3.14,12.853,0,8.982,0z"></path>    </g></g></g></svg>